<svg width="137" height="128" viewBox="0 0 137 128" fill="none" xmlns="http://www.w3.org/2000/svg">
<circle cx="68.723" cy="37.9491" r="37.9162" fill="white"/>
<path d="M51.5817 24.2572L62.245 32.1525L64.5103 48.4814L46.6055 42.5599L51.5817 24.2572Z" fill="#4D478D"/>
<path d="M71.1896 48.4423L73.4627 33.7362L84.494 25.3104L88.8594 43.5395L71.1896 48.4423Z" fill="#4D478D"/>
<path d="M37.5139 106H33.5779L30.4819 99.064H30.2899V106H26.6419V91.096H30.6979L33.6499 98.248H33.8419V91.096H37.5139V106ZM46.5143 92.656C47.4423 91.456 48.9543 90.856 51.0503 90.856C53.1463 90.856 54.6423 91.448 55.5383 92.632C56.4503 93.816 56.9063 95.744 56.9063 98.416C56.9063 101.072 56.4423 103.04 55.5143 104.32C54.5863 105.6 53.0823 106.24 51.0023 106.24C48.9223 106.24 47.4263 105.608 46.5143 104.344C45.6023 103.08 45.1463 101.12 45.1463 98.464C45.1463 95.792 45.6023 93.856 46.5143 92.656ZM52.7783 98.416C52.7783 96.944 52.6583 95.952 52.4183 95.44C52.1943 94.912 51.7223 94.648 51.0023 94.648C50.2983 94.648 49.8423 94.912 49.6343 95.44C49.4263 95.952 49.3223 96.936 49.3223 98.392V98.968C49.3223 100.52 49.4343 101.544 49.6583 102.04C49.8983 102.52 50.3703 102.76 51.0743 102.76C51.7943 102.76 52.2583 102.528 52.4663 102.064C52.6743 101.6 52.7783 100.64 52.7783 99.184V98.416ZM73.2044 94.72H70.4204V106H66.3164V94.72H63.3644L63.6044 91.096H73.4444L73.2044 94.72ZM88.4481 106H80.3841V91.096H88.6881L88.4481 94.768H84.4881V97H87.9201V100.168H84.4881V102.64H88.6881L88.4481 106ZM110.511 106H106.743V98.224H106.527L105.111 106H101.247L99.9033 98.224H99.6633V106H95.9433L96.4473 91.096H101.847L103.191 99.16H103.383L104.679 91.096H110.007L110.511 106Z" fill="white"/>
</svg>
