<svg width="15" height="20" viewBox="0 0 15 20" fill="none" xmlns="http://www.w3.org/2000/svg">
<g clip-path="url(#clip0_12_450)">
<path d="M1.25005 1.25C1.25005 0.558594 1.80864 0 2.50005 0H12.5C13.1915 0 13.75 0.558594 13.75 1.25C13.75 1.94141 13.1915 2.5 12.5 2.5H11.3477L11.793 8.28906C13.2266 9.06641 14.3594 10.3672 14.8985 11.9883L14.9375 12.1055C15.0665 12.4883 15 12.9062 14.7657 13.2305C14.5313 13.5547 14.1524 13.75 13.75 13.75H1.25005C0.847702 13.75 0.472702 13.5586 0.234421 13.2305C-0.00386001 12.9023 -0.06636 12.4844 0.0625462 12.1055L0.101609 11.9883C0.640671 10.3672 1.77348 9.06641 3.20708 8.28906L3.65239 2.5H2.50005C1.80864 2.5 1.25005 1.94141 1.25005 1.25ZM6.25005 15H8.75005V18.75C8.75005 19.4414 8.19145 20 7.50005 20C6.80864 20 6.25005 19.4414 6.25005 18.75V15Z" fill="#4D478D"/>
</g>
<defs>
<clipPath id="clip0_12_450">
<rect width="15" height="20" fill="white"/>
</clipPath>
</defs>
</svg>
